<svg width="27" height="26" viewBox="0 0 27 26" fill="none" xmlns="http://www.w3.org/2000/svg">
<path d="M5.47564 10.4333C5.99681 10.6071 6.40578 11.016 6.5795 11.5372C6.7563 12.0676 7.50655 12.0676 7.68336 11.5372C7.85708 11.016 8.26605 10.6071 8.78722 10.4333C9.31763 10.2565 9.31763 9.50628 8.78722 9.32948C8.26605 9.15576 7.85708 8.74679 7.68336 8.22562C7.50655 7.69521 6.7563 7.69521 6.5795 8.22562C6.40578 8.74679 5.99681 9.15576 5.47564 9.32948C4.94523 9.50628 4.94523 10.2565 5.47564 10.4333Z" fill="white"/>
<path fill-rule="evenodd" clip-rule="evenodd" d="M5.91665 4.33331C3.52341 4.33331 1.58331 6.27341 1.58331 8.66665V17.3333C1.58331 19.7265 3.52341 21.6666 5.91665 21.6666H16.75C18.8001 21.6666 20.5178 20.2429 20.9681 18.3302L21.95 19.0666C23.3783 20.1379 25.4166 19.1187 25.4166 17.3333V8.66665C25.4166 6.88121 23.3783 5.86205 21.95 6.93331L20.9681 7.66973C20.5178 5.75704 18.8001 4.33331 16.75 4.33331H5.91665ZM23.25 17.3333L21.0833 15.7083V10.2916L23.25 8.66665V17.3333ZM3.74998 8.66665C3.74998 7.47003 4.72003 6.49998 5.91665 6.49998H16.75C17.9466 6.49998 18.9166 7.47003 18.9166 8.66665V17.3333C18.9166 18.5299 17.9466 19.5 16.75 19.5H5.91665C4.72003 19.5 3.74998 18.5299 3.74998 17.3333V8.66665Z" fill="white"/>
</svg>
